<svg xmlns="http://www.w3.org/2000/svg" xmlns:xlink="http://www.w3.org/1999/xlink" width="661.522" height="164.785" viewBox="0 0 661.522 164.785"><defs><style>.a{fill:#333;}.b{fill:#656565;}.c{fill:url(#a);}.d{fill:url(#b);}.e{fill:url(#e);}.f{fill:url(#f);}.g{filter:url(#g);}.h{filter:url(#c);}</style><linearGradient id="a" x1="-1.126" y1="5.045" x2="-2.126" y2="5.045" gradientUnits="objectBoundingBox"><stop offset="0" stop-color="#d50000"/><stop offset="0.314" stop-color="#ee5a5a"/><stop offset="1" stop-color="#ff9797"/></linearGradient><linearGradient id="b" x1="-0.107" y1="0.063" x2="0.413" y2="-0.937" gradientUnits="objectBoundingBox"><stop offset="0" stop-color="#ff2e2e"/><stop offset="0.425" stop-color="#d50000"/><stop offset="1" stop-color="#950000"/></linearGradient><filter id="c" x="0" y="82.557" width="232.094" height="82.228" filterUnits="userSpaceOnUse"><feOffset dy="-3" input="SourceAlpha"/><feGaussianBlur stdDeviation="3" result="d"/><feFlood flood-opacity="0.161"/><feComposite operator="in" in2="d"/><feComposite in="SourceGraphic"/></filter><linearGradient id="e" x1="-0.39" y1="4.402" x2="-1.39" y2="4.402" gradientUnits="objectBoundingBox"><stop offset="0" stop-color="#8e8e8e"/><stop offset="1" stop-color="#006d15"/></linearGradient><linearGradient id="f" y1="0.451" x2="1.032" y2="0.219" gradientUnits="objectBoundingBox"><stop offset="0" stop-color="#d4d4d4"/><stop offset="1" stop-color="#484646"/></linearGradient><filter id="g" x="0" y="0" width="232.093" height="82.228" filterUnits="userSpaceOnUse"><feOffset dy="3" input="SourceAlpha"/><feGaussianBlur stdDeviation="3" result="h"/><feFlood flood-opacity="0.161"/><feComposite operator="in" in2="h"/><feComposite in="SourceGraphic"/></filter></defs><g transform="translate(-408.917 -215.119)"><g transform="translate(657.404 224.302)"><path class="a" d="M479.808,553.7V469.719H502.5v65.66h32.343V553.7Z" transform="translate(-479.808 -469.374)"/><path class="a" d="M601.97,469.719v50.553q0,16.485-9.335,25.534t-26.915,9.048q-17.177,0-26.4-8.79T530.1,520.787V469.719H552.91v49.288q0,8.9,3.332,12.927t9.823,4.019q6.951,0,10.081-3.992t3.132-13.069V469.719Z" transform="translate(-462.089 -469.374)"/><path class="a" d="M676.254,553.7H646.5L615.82,494.535H615.3q1.089,13.96,1.09,21.313V553.7H596.289V469.719h29.642l30.562,58.365h.343q-.8-12.7-.8-20.394V469.719h20.221Z" transform="translate(-438.772 -469.374)"/><path class="a" d="M722.738,553.794,718.6,538.055H691.317l-4.252,15.739H662.134l27.4-84.33h30.274l27.746,84.33Zm-8.845-34.352-3.62-13.787q-1.264-4.6-3.072-11.892t-2.386-10.455q-.515,2.929-2.039,9.651t-6.749,26.482Z" transform="translate(-415.576 -469.464)"/><path class="a" d="M754.706,523.144V553.7H732.015V469.719h27.516q34.236,0,34.239,24.816,0,14.593-14.248,22.576L803.993,553.7H778.258l-17.807-30.56Zm0-17.063h4.249q11.895,0,11.892-10.511,0-8.674-11.662-8.674h-4.479Z" transform="translate(-390.957 -469.374)"/></g><g transform="translate(657.404 327.432)"><path class="b" d="M555.113,550.668h16.215a16.791,16.791,0,0,1,6.089,1.056,14.058,14.058,0,0,1,4.69,2.92,12.743,12.743,0,0,1,3.014,4.443,14.707,14.707,0,0,1,1.056,5.622,11.686,11.686,0,0,1-.745,4.195,12.569,12.569,0,0,1-2.05,3.541,15.19,15.19,0,0,1-3.044,2.8,15.43,15.43,0,0,1-3.666,1.894l-.062.435,11.929,17.085v.5h-9.63l-11.494-16.712H563.5v16.712h-8.387Zm16.153,20.069A6.545,6.545,0,0,0,575.958,569a5.821,5.821,0,0,0,1.832-4.411,6.786,6.786,0,0,0-.4-2.3,5.772,5.772,0,0,0-1.212-1.986,5.959,5.959,0,0,0-2.02-1.4,6.917,6.917,0,0,0-2.766-.525H563.5v12.363Z" transform="translate(-555.113 -549.674)"/><path class="b" d="M596.484,596.643a23.387,23.387,0,0,1-9.227-1.8,22.468,22.468,0,0,1-12.239-12.331,24.291,24.291,0,0,1,0-18.2,22.481,22.481,0,0,1,12.239-12.333,24.523,24.523,0,0,1,18.452,0,22.5,22.5,0,0,1,12.239,12.333,24.267,24.267,0,0,1,0,18.2,22.887,22.887,0,0,1-4.878,7.393,22.656,22.656,0,0,1-7.361,4.938A23.4,23.4,0,0,1,596.484,596.643Zm0-7.95a15.04,15.04,0,0,0,5.808-1.12,14.614,14.614,0,0,0,4.722-3.106,14.136,14.136,0,0,0,3.169-4.814,17.528,17.528,0,0,0,0-12.49,14.174,14.174,0,0,0-3.169-4.814,14.646,14.646,0,0,0-4.722-3.106,15.673,15.673,0,0,0-11.618,0,14.646,14.646,0,0,0-4.722,3.106,14.174,14.174,0,0,0-3.169,4.814,17.555,17.555,0,0,0,0,12.49,14.136,14.136,0,0,0,3.169,4.814,14.614,14.614,0,0,0,4.722,3.106A15.044,15.044,0,0,0,596.484,588.693Z" transform="translate(-536.903 -550.172)"/><path class="b" d="M599.815,550.668h17.4a15.553,15.553,0,0,1,5.343.9,13.674,13.674,0,0,1,4.317,2.483,11.916,11.916,0,0,1,2.89,3.7,10.764,10.764,0,0,1-.651,10.469,11.219,11.219,0,0,1-4.257,3.633v.5a12.125,12.125,0,0,1,5.5,3.884,10.266,10.266,0,0,1,2.08,6.553,11.211,11.211,0,0,1-1.148,5.127,11.869,11.869,0,0,1-3.139,3.882,14.429,14.429,0,0,1-4.627,2.487,18.105,18.105,0,0,1-5.686.868H599.815Zm16.774,18.143a6.1,6.1,0,0,0,4.505-1.585,5.253,5.253,0,0,0,.03-7.487,5.8,5.8,0,0,0-4.287-1.553H608.2v10.626Zm.932,18.638a6.788,6.788,0,0,0,4.846-1.587,5.343,5.343,0,0,0,1.677-4.068,5.5,5.5,0,0,0-1.708-4.13,7.043,7.043,0,0,0-5.064-1.647H608.2V587.45Z" transform="translate(-510.227 -549.674)"/><path class="b" d="M641.465,596.643a23.384,23.384,0,0,1-9.225-1.8,22.644,22.644,0,0,1-7.363-4.938A22.886,22.886,0,0,1,620,582.51a24.291,24.291,0,0,1,0-18.2,22.493,22.493,0,0,1,12.241-12.333,24.523,24.523,0,0,1,18.452,0,22.485,22.485,0,0,1,12.237,12.333,24.266,24.266,0,0,1,0,18.2,22.472,22.472,0,0,1-12.237,12.331A23.4,23.4,0,0,1,641.465,596.643Zm0-7.95a15.058,15.058,0,0,0,5.81-1.12,14.625,14.625,0,0,0,4.72-3.106,14.135,14.135,0,0,0,3.169-4.814,17.526,17.526,0,0,0,0-12.49,14.173,14.173,0,0,0-3.169-4.814,14.657,14.657,0,0,0-4.72-3.106,15.673,15.673,0,0,0-11.618,0,14.632,14.632,0,0,0-4.724,3.106,14.173,14.173,0,0,0-3.169,4.814,17.555,17.555,0,0,0,0,12.49,14.135,14.135,0,0,0,3.169,4.814,14.6,14.6,0,0,0,4.724,3.106A15.026,15.026,0,0,0,641.465,588.693Z" transform="translate(-491.737 -550.172)"/><path class="b" d="M654.8,595.151V558.622H642.378v-7.954h33.238v7.954H663.191v36.529Z" transform="translate(-467.489 -549.674)"/><path class="b" d="M661.938,550.668h8.387v44.483h-8.387Z" transform="translate(-447.848 -549.674)"/><path class="b" d="M710.258,588.5a22.091,22.091,0,0,1-7.766,6.056,24.8,24.8,0,0,1-19.228.281,22.541,22.541,0,0,1-12.271-12.269,24.211,24.211,0,0,1,0-18.33,22.574,22.574,0,0,1,12.271-12.269,23.418,23.418,0,0,1,9.225-1.8,22.373,22.373,0,0,1,9.413,1.866,21.9,21.9,0,0,1,7.237,5.4l-5.9,5.716a15.8,15.8,0,0,0-4.567-3.666,12.9,12.9,0,0,0-6.119-1.365,15.632,15.632,0,0,0-5.84,1.086,14.139,14.139,0,0,0-4.754,3.074,14.534,14.534,0,0,0-3.2,4.816,17.432,17.432,0,0,0,0,12.612,14.484,14.484,0,0,0,3.2,4.814,14.113,14.113,0,0,0,4.754,3.076,15.636,15.636,0,0,0,5.84,1.088,13.962,13.962,0,0,0,6.615-1.523,16.289,16.289,0,0,0,5.126-4.317Z" transform="translate(-440.564 -550.172)"/><path class="b" d="M708.131,596.643a18.359,18.359,0,0,1-5.467-.808,15.773,15.773,0,0,1-4.784-2.423,16.734,16.734,0,0,1-3.792-3.946,19.064,19.064,0,0,1-2.545-5.435l7.888-3.1a12.046,12.046,0,0,0,3.046,5.559,7.673,7.673,0,0,0,5.716,2.207,9.186,9.186,0,0,0,2.515-.343,7.486,7.486,0,0,0,2.174-.994,4.809,4.809,0,0,0,1.523-1.647,4.6,4.6,0,0,0,.557-2.3,5.535,5.535,0,0,0-.433-2.235,5.25,5.25,0,0,0-1.461-1.866,13.081,13.081,0,0,0-2.671-1.677,40.554,40.554,0,0,0-4.068-1.677l-2.734-.994a20.78,20.78,0,0,1-3.635-1.677,15.857,15.857,0,0,1-3.323-2.545,12.591,12.591,0,0,1-2.455-3.511,10.486,10.486,0,0,1-.962-4.567,11.7,11.7,0,0,1,1.026-4.876,11.918,11.918,0,0,1,2.92-3.978,13.764,13.764,0,0,1,4.533-2.672,17.1,17.1,0,0,1,5.872-.962,16.841,16.841,0,0,1,5.808.9,14.34,14.34,0,0,1,4.165,2.3,12.761,12.761,0,0,1,2.764,3.076,14.9,14.9,0,0,1,1.553,3.167l-7.4,3.108a7.862,7.862,0,0,0-2.265-3.355,6.468,6.468,0,0,0-4.505-1.491,7.684,7.684,0,0,0-4.535,1.271,3.9,3.9,0,0,0-1.8,3.327,4.209,4.209,0,0,0,1.741,3.385,18.992,18.992,0,0,0,5.527,2.7l2.8.93a31.808,31.808,0,0,1,4.876,2.144,15.278,15.278,0,0,1,3.79,2.888,11.74,11.74,0,0,1,2.423,3.82,13.5,13.5,0,0,1,.84,4.94,12.162,12.162,0,0,1-1.4,6,12.862,12.862,0,0,1-3.573,4.13,15.534,15.534,0,0,1-4.91,2.423A18.773,18.773,0,0,1,708.131,596.643Z" transform="translate(-418.121 -550.172)"/></g><g transform="translate(417.917 221.119)"><rect class="c" width="152.785" height="42.819" rx="21.409" transform="translate(42.819 0) rotate(90)"/><g class="h" transform="matrix(1, 0, 0, 1, -9, -6)"><path class="d" d="M500.41,369.187H671.684a21.4,21.4,0,0,1,21.4,20.9c.281,12.1-9.788,21.919-21.888,21.919H500.41A21.4,21.4,0,0,1,479,390.6V347.777A21.409,21.409,0,0,0,500.41,369.187Z" transform="translate(-470 -253.22)"/></g><rect class="e" width="152.785" height="42.819" rx="21.409" transform="translate(171.275 152.785) rotate(-90)"/><g class="g" transform="matrix(1, 0, 0, 1, -9, -6)"><path class="f" d="M671.684,264.819H500.41a21.409,21.409,0,1,1,0-42.819H671.684a21.4,21.4,0,0,1,21.409,21.41v42.819A21.409,21.409,0,0,0,671.684,264.819Z" transform="translate(-470 -216)"/></g></g></g></svg>